<svg xmlns="http://www.w3.org/2000/svg" viewBox="0 0 75 75"><defs><style>.cls-1{fill:#c66c26;}.cls-2{fill:#fff;}.cls-3{opacity:0.4;}</style></defs><title>Asset 4</title><g id="Layer_2" data-name="Layer 2"><g id="Apps"><rect class="cls-1" width="75" height="75" rx="30"/><path class="cls-2" d="M35.74,36.68a8.72,8.72,0,0,1-2.68-16.07,11.6,11.6,0,0,0,4.78,4.89c3,1.74,6.21,2.16,8.28,1.33a7.7,7.7,0,0,1,.13,1.27,8.77,8.77,0,0,1-7,8.58,11.68,11.68,0,1,0-3.53,0Z"/><path class="cls-3" d="M47,41.48H45.42c0,3.75-3.55,6.78-7.92,6.78s-7.92-3-7.92-6.78H28c-5.25,0-9.5,3.64-9.5,8.14v1.74c0,5,4.76,9.12,10.64,9.12H45.86c5.88,0,10.64-4.08,10.64-9.12V49.62C56.5,45.12,52.25,41.48,47,41.48Z"/></g></g></svg>