<svg xmlns="http://www.w3.org/2000/svg" viewBox="0 0 75 75"><defs><style>.cls-1{fill:#4576a5;}.cls-2{fill:#fff;}.cls-3{opacity:0.4;}</style></defs><title>Asset 6</title><g id="Layer_2" data-name="Layer 2"><g id="Apps"><rect class="cls-1" width="75" height="75" rx="30"/><path class="cls-2" d="M29.6,37.12A10.84,10.84,0,0,1,34.11,36h19V32.37A5.16,5.16,0,0,0,48,27.25H35.58v-.74a5.17,5.17,0,0,0-5.13-5.12H23.13A5.16,5.16,0,0,0,18,26.52v22c0,.07,0,.16,0,.29s0,.23,0,.29l.12-.14,7.71-9.06A10.73,10.73,0,0,1,29.6,37.12Z"/><path class="cls-3" d="M60.39,39.26A3,3,0,0,0,59,39H34.11a7.8,7.8,0,0,0-3.28.82,7.7,7.7,0,0,0-2.76,2l-7.69,9.06a2.37,2.37,0,0,0-.71,1.51,1,1,0,0,0,.61,1,3,3,0,0,0,1.38.3h24.9a7.93,7.93,0,0,0,3.28-.81,7.61,7.61,0,0,0,2.76-2l7.69-9.06A2.39,2.39,0,0,0,61,40.25,1,1,0,0,0,60.39,39.26Z"/></g></g></svg>