<svg xmlns="http://www.w3.org/2000/svg" viewBox="0 0 24 22.94"><defs><style>.cls-1{fill:#fff;}</style></defs><title>Asset 3</title><g id="Layer_2" data-name="Layer 2"><g id="Home"><rect class="cls-1" x="0.3" y="7.46" width="5.15" height="15.47"/><path class="cls-1" d="M2.88,5.35h0A2.68,2.68,0,1,1,2.91,0a2.68,2.68,0,1,1,0,5.35Z"/><path class="cls-1" d="M24,22.94H18.86V14.66c0-2.08-.75-3.5-2.61-3.5A2.82,2.82,0,0,0,13.61,13a3.43,3.43,0,0,0-.17,1.26v8.64H8.3s.06-14,0-15.48h5.14v2.2A5.1,5.1,0,0,1,18.08,7.1c3.38,0,5.92,2.21,5.92,7Z"/></g></g></svg>